<svg id="my-svg" width="100%" xmlns="http://www.w3.org/2000/svg" xmlns:xlink="http://www.w3.org/1999/xlink" class="classDiagram" style="max-width: 524.875px; background-color: white;" viewBox="0 0 524.875 420" role="graphics-document document" aria-roledescription="class"><style>#my-svg{font-family:"trebuchet ms",verdana,arial,sans-serif;font-size:16px;fill:#333;}@keyframes edge-animation-frame{from{stroke-dashoffset:0;}}@keyframes dash{to{stroke-dashoffset:0;}}#my-svg .edge-animation-slow{stroke-dasharray:9,5!important;stroke-dashoffset:900;animation:dash 50s linear infinite;stroke-linecap:round;}#my-svg .edge-animation-fast{stroke-dasharray:9,5!important;stroke-dashoffset:900;animation:dash 20s linear infinite;stroke-linecap:round;}#my-svg .error-icon{fill:#552222;}#my-svg .error-text{fill:#552222;stroke:#552222;}#my-svg .edge-thickness-normal{stroke-width:1px;}#my-svg .edge-thickness-thick{stroke-width:3.5px;}#my-svg .edge-pattern-solid{stroke-dasharray:0;}#my-svg .edge-thickness-invisible{stroke-width:0;fill:none;}#my-svg .edge-pattern-dashed{stroke-dasharray:3;}#my-svg .edge-pattern-dotted{stroke-dasharray:2;}#my-svg .marker{fill:#333333;stroke:#333333;}#my-svg .marker.cross{stroke:#333333;}#my-svg svg{font-family:"trebuchet ms",verdana,arial,sans-serif;font-size:16px;}#my-svg p{margin:0;}#my-svg g.classGroup text{fill:#9370DB;stroke:none;font-family:"trebuchet ms",verdana,arial,sans-serif;font-size:10px;}#my-svg g.classGroup text .title{font-weight:bolder;}#my-svg .cluster-label text{fill:#333;}#my-svg .cluster-label span{color:#333;}#my-svg .cluster-label span p{background-color:transparent;}#my-svg .cluster rect{fill:#ffffde;stroke:#aaaa33;stroke-width:1px;}#my-svg .cluster text{fill:#333;}#my-svg .cluster span{color:#333;}#my-svg .nodeLabel,#my-svg .edgeLabel{color:#131300;}#my-svg .noteLabel .nodeLabel,#my-svg .noteLabel .edgeLabel{color:black;}#my-svg .edgeLabel .label rect{fill:#ECECFF;}#my-svg .label text{fill:#131300;}#my-svg .labelBkg{background:#ECECFF;}#my-svg .edgeLabel .label span{background:#ECECFF;}#my-svg .classTitle{font-weight:bolder;}#my-svg .node rect,#my-svg .node circle,#my-svg .node ellipse,#my-svg .node polygon,#my-svg .node path{fill:#ECECFF;stroke:#9370DB;stroke-width:1;}#my-svg .divider{stroke:#9370DB;stroke-width:1;}#my-svg g.clickable{cursor:pointer;}#my-svg g.classGroup rect{fill:#ECECFF;stroke:#9370DB;}#my-svg g.classGroup line{stroke:#9370DB;stroke-width:1;}#my-svg .classLabel .box{stroke:none;stroke-width:0;fill:#ECECFF;opacity:0.5;}#my-svg .classLabel .label{fill:#9370DB;font-size:10px;}#my-svg .relation{stroke:#333333;stroke-width:1;fill:none;}#my-svg .dashed-line{stroke-dasharray:3;}#my-svg .dotted-line{stroke-dasharray:1 2;}#my-svg [id$="-compositionStart"],#my-svg .composition{fill:#333333!important;stroke:#333333!important;stroke-width:1;}#my-svg [id$="-compositionEnd"],#my-svg .composition{fill:#333333!important;stroke:#333333!important;stroke-width:1;}#my-svg [id$="-dependencyStart"],#my-svg .dependency{fill:#333333!important;stroke:#333333!important;stroke-width:1;}#my-svg [id$="-dependencyEnd"],#my-svg .dependency{fill:#333333!important;stroke:#333333!important;stroke-width:1;}#my-svg [id$="-extensionStart"],#my-svg .extension{fill:transparent!important;stroke:#333333!important;stroke-width:1;}#my-svg [id$="-extensionEnd"],#my-svg .extension{fill:transparent!important;stroke:#333333!important;stroke-width:1;}#my-svg [id$="-aggregationStart"],#my-svg .aggregation{fill:transparent!important;stroke:#333333!important;stroke-width:1;}#my-svg [id$="-aggregationEnd"],#my-svg .aggregation{fill:transparent!important;stroke:#333333!important;stroke-width:1;}#my-svg [id$="-lollipopStart"],#my-svg .lollipop{fill:#ECECFF!important;stroke:#333333!important;stroke-width:1;}#my-svg [id$="-lollipopEnd"],#my-svg .lollipop{fill:#ECECFF!important;stroke:#333333!important;stroke-width:1;}#my-svg .edgeTerminals{font-size:11px;line-height:initial;}#my-svg .classTitleText{text-anchor:middle;font-size:18px;fill:#333;}#my-svg .edgeLabel[data-look="neo"]{background-color:rgba(232,232,232, 0.8);text-align:center;}#my-svg .edgeLabel[data-look="neo"] p{background-color:rgba(232,232,232, 0.8);}#my-svg .edgeLabel[data-look="neo"] rect{opacity:0.5;background-color:rgba(232,232,232, 0.8);fill:rgba(232,232,232, 0.8);}#my-svg .label-icon{display:inline-block;height:1em;overflow:visible;vertical-align:-0.125em;}#my-svg .node .label-icon path{fill:currentColor;stroke:revert;stroke-width:revert;}#my-svg .node .neo-node{stroke:#9370DB;}#my-svg [data-look="neo"].node rect,#my-svg [data-look="neo"].cluster rect,#my-svg [data-look="neo"].node polygon{stroke:#9370DB;filter:drop-shadow(1px 2px 2px rgba(185, 185, 185, 1));}#my-svg [data-look="neo"].node path{stroke:#9370DB;stroke-width:1px;}#my-svg [data-look="neo"].node .outer-path{filter:drop-shadow(1px 2px 2px rgba(185, 185, 185, 1));}#my-svg [data-look="neo"].node .neo-line path{stroke:#9370DB;filter:none;}#my-svg [data-look="neo"].node circle{stroke:#9370DB;filter:drop-shadow(1px 2px 2px rgba(185, 185, 185, 1));}#my-svg [data-look="neo"].node circle .state-start{fill:#000000;}#my-svg [data-look="neo"].icon-shape .icon{fill:#9370DB;filter:drop-shadow(1px 2px 2px rgba(185, 185, 185, 1));}#my-svg [data-look="neo"].icon-shape .icon-neo path{stroke:#9370DB;filter:drop-shadow(1px 2px 2px rgba(185, 185, 185, 1));}#my-svg :root{--mermaid-font-family:"trebuchet ms",verdana,arial,sans-serif;}</style><g><defs><marker id="my-svg_class-aggregationStart" class="marker aggregation class" refX="18" refY="7" markerWidth="190" markerHeight="240" orient="auto"><path d="M 18,7 L9,13 L1,7 L9,1 Z"/></marker></defs><defs><marker id="my-svg_class-aggregationEnd" class="marker aggregation class" refX="1" refY="7" markerWidth="20" markerHeight="28" orient="auto"><path d="M 18,7 L9,13 L1,7 L9,1 Z"/></marker></defs><defs><marker id="my-svg_class-aggregationStart-margin" class="marker aggregation class" refX="15" refY="7" markerWidth="190" markerHeight="240" orient="auto" markerUnits="userSpaceOnUse"><path d="M 18,7 L9,13 L1,7 L9,1 Z" style="stroke-width: 2;"/></marker></defs><defs><marker id="my-svg_class-aggregationEnd-margin" class="marker aggregation class" refX="1" refY="7" markerWidth="20" markerHeight="28" orient="auto" markerUnits="userSpaceOnUse"><path d="M 18,7 L9,13 L1,7 L9,1 Z" style="stroke-width: 2;"/></marker></defs><defs><marker id="my-svg_class-extensionStart" class="marker extension class" refX="18" refY="7" markerWidth="20" markerHeight="28" orient="auto" markerUnits="userSpaceOnUse"><path d="M 1,7 L18,13 V 1 Z"/></marker></defs><defs><marker id="my-svg_class-extensionEnd" class="marker extension class" refX="1" refY="7" markerWidth="20" markerHeight="28" orient="auto"><path d="M 1,1 V 13 L18,7 Z"/></marker></defs><marker id="my-svg_class-extensionStart-margin" class="marker extension class" refX="18" refY="7" markerWidth="20" markerHeight="28" orient="auto" markerUnits="userSpaceOnUse" viewBox="0 0 20 14"><polygon points="10,7 18,13 18,1" style="stroke-width: 2; stroke-dasharray: 0;"/></marker><defs><marker id="my-svg_class-extensionEnd-margin" class="marker extension class" refX="9" refY="7" markerWidth="20" markerHeight="28" orient="auto" markerUnits="userSpaceOnUse" viewBox="0 0 20 14"><polygon points="10,1 10,13 18,7" style="stroke-width: 2; stroke-dasharray: 0;"/></marker></defs><defs><marker id="my-svg_class-compositionStart" class="marker composition class" refX="18" refY="7" markerWidth="190" markerHeight="240" orient="auto"><path d="M 18,7 L9,13 L1,7 L9,1 Z"/></marker></defs><defs><marker id="my-svg_class-compositionEnd" class="marker composition class" refX="1" refY="7" markerWidth="20" markerHeight="28" orient="auto"><path d="M 18,7 L9,13 L1,7 L9,1 Z"/></marker></defs><defs><marker id="my-svg_class-compositionStart-margin" class="marker composition class" refX="15" refY="7" markerWidth="190" markerHeight="240" orient="auto" markerUnits="userSpaceOnUse"><path viewBox="0 0 15 15" d="M 18,7 L9,13 L1,7 L9,1 Z" style="stroke-width: 0;"/></marker></defs><defs><marker id="my-svg_class-compositionEnd-margin" class="marker composition class" refX="3.5" refY="7" markerWidth="20" markerHeight="28" orient="auto" markerUnits="userSpaceOnUse"><path d="M 18,7 L9,13 L1,7 L9,1 Z" style="stroke-width: 0;"/></marker></defs><defs><marker id="my-svg_class-dependencyStart" class="marker dependency class" refX="6" refY="7" markerWidth="190" markerHeight="240" orient="auto"><path d="M 5,7 L9,13 L1,7 L9,1 Z"/></marker></defs><defs><marker id="my-svg_class-dependencyEnd" class="marker dependency class" refX="13" refY="7" markerWidth="20" markerHeight="28" orient="auto"><path d="M 18,7 L9,13 L14,7 L9,1 Z"/></marker></defs><defs><marker id="my-svg_class-dependencyStart-margin" class="marker dependency class" refX="4" refY="7" markerWidth="190" markerHeight="240" orient="auto" markerUnits="userSpaceOnUse"><path d="M 5,7 L9,13 L1,7 L9,1 Z" style="stroke-width: 0;"/></marker></defs><defs><marker id="my-svg_class-dependencyEnd-margin" class="marker dependency class" refX="16" refY="7" markerWidth="20" markerHeight="28" orient="auto" markerUnits="userSpaceOnUse"><path d="M 18,7 L9,13 L14,7 L9,1 Z" style="stroke-width: 0;"/></marker></defs><defs><marker id="my-svg_class-lollipopStart" class="marker lollipop class" refX="13" refY="7" markerWidth="190" markerHeight="240" orient="auto"><circle fill="transparent" cx="7" cy="7" r="6"/></marker></defs><defs><marker id="my-svg_class-lollipopEnd" class="marker lollipop class" refX="1" refY="7" markerWidth="190" markerHeight="240" orient="auto"><circle fill="transparent" cx="7" cy="7" r="6"/></marker></defs><defs><marker id="my-svg_class-lollipopStart-margin" class="marker lollipop class" refX="13" refY="7" markerWidth="190" markerHeight="240" orient="auto" markerUnits="userSpaceOnUse"><circle fill="transparent" cx="7" cy="7" r="6" stroke-width="2"/></marker></defs><defs><marker id="my-svg_class-lollipopEnd-margin" class="marker lollipop class" refX="1" refY="7" markerWidth="190" markerHeight="240" orient="auto" markerUnits="userSpaceOnUse"><circle fill="transparent" cx="7" cy="7" r="6" stroke-width="2"/></marker></defs><g class="root"><g class="clusters"/><g class="edgePaths"><path d="M203.685,254L200.74,260.167C197.794,266.333,191.903,278.667,188.957,290C186.012,301.333,186.012,311.667,186.012,316.833L186.012,322" id="my-svg-id_PointService_User_1" class="edge-thickness-normal edge-pattern-solid relation" style=";;;" data-edge="true" data-et="edge" data-id="id_PointService_User_1" data-points="W3sieCI6MjAzLjY4NTE4MDY2NDA2MjUsInkiOjI1NH0seyJ4IjoxODYuMDExNzE4NzUsInkiOjI5MX0seyJ4IjoxODYuMDExNzE4NzUsInkiOjMyOH1d" data-look="classic" marker-end="url(#my-svg_class-dependencyEnd)"/><path d="M321.19,254L324.135,260.167C327.081,266.333,332.972,278.667,335.918,290C338.863,301.333,338.863,311.667,338.863,316.833L338.863,322" id="my-svg-id_PointService_PointTransaction_2" class="edge-thickness-normal edge-pattern-solid relation" style=";;;" data-edge="true" data-et="edge" data-id="id_PointService_PointTransaction_2" data-points="W3sieCI6MzIxLjE4OTgxOTMzNTkzNzUsInkiOjI1NH0seyJ4IjozMzguODYzMjgxMjUsInkiOjI5MX0seyJ4IjozMzguODYzMjgxMjUsInkiOjMyOH1d" data-look="classic" marker-end="url(#my-svg_class-dependencyEnd)"/></g><g class="edgeLabels"><g class="edgeLabel" transform="translate(186.01171875, 291)"><g class="label" data-id="id_PointService_User_1" transform="translate(-32, -12)"><foreignObject width="64" height="24"><div xmlns="http://www.w3.org/1999/xhtml" class="labelBkg" style="display: table-cell; white-space: nowrap; line-height: 1.5; max-width: 200px; text-align: center;"><span class="edgeLabel"><p>更新余额</p></span></div></foreignObject></g></g><g class="edgeLabel" transform="translate(338.86328125, 291)"><g class="label" data-id="id_PointService_PointTransaction_2" transform="translate(-32, -12)"><foreignObject width="64" height="24"><div xmlns="http://www.w3.org/1999/xhtml" class="labelBkg" style="display: table-cell; white-space: nowrap; line-height: 1.5; max-width: 200px; text-align: center;"><span class="edgeLabel"><p>写入流水</p></span></div></foreignObject></g></g></g><g class="nodes"><g class="node default" id="my-svg-classId-PointService-0" data-look="classic" transform="translate(262.4375, 131)"><g class="basic label-container outer-path"><path d="M-254.4375 -123 L254.4375 -123 L254.4375 123 L-254.4375 123" stroke="none" stroke-width="0" fill="#ECECFF" style=""/><path d="M-254.4375 -123 C-71.67638006441504 -123, 111.08473987116992 -123, 254.4375 -123 M-254.4375 -123 C-125.13396248782666 -123, 4.1695750243466705 -123, 254.4375 -123 M254.4375 -123 C254.4375 -31.908436998131663, 254.4375 59.183126003736675, 254.4375 123 M254.4375 -123 C254.4375 -45.968773930741335, 254.4375 31.06245213851733, 254.4375 123 M254.4375 123 C127.93643710821817 123, 1.4353742164363439 123, -254.4375 123 M254.4375 123 C120.08269634828329 123, -14.272107303433415 123, -254.4375 123 M-254.4375 123 C-254.4375 24.85425402563959, -254.4375 -73.29149194872082, -254.4375 -123 M-254.4375 123 C-254.4375 26.89704671830654, -254.4375 -69.20590656338692, -254.4375 -123" stroke="#9370DB" stroke-width="1.3" fill="none" stroke-dasharray="0 0" style=""/></g><g class="annotation-group text" transform="translate(0, -99)"/><g class="label-group text" transform="translate(-46.78125, -99)"><g class="label" style="font-weight: bolder" transform="translate(0,-12)"><foreignObject width="93.5625" height="24"><div xmlns="http://www.w3.org/1999/xhtml" style="display: table-cell; white-space: nowrap; line-height: 1.5; max-width: 133px; text-align: center;"><span class="nodeLabel markdown-node-label" style=""><p>PointService</p></span></div></foreignObject></g></g><g class="members-group text" transform="translate(-242.4375, -51)"/><g class="methods-group text" transform="translate(-242.4375, -21)"><g class="label" style="" transform="translate(0,-12)"><foreignObject width="186.09375" height="24"><div xmlns="http://www.w3.org/1999/xhtml" style="display: table-cell; white-space: nowrap; line-height: 1.5; max-width: 226px; text-align: center;"><span class="nodeLabel markdown-node-label" style=""><p>+grantInitialPoints(userId)</p></span></div></foreignObject></g><g class="label" style="" transform="translate(0,12)"><foreignObject width="118.25" height="24"><div xmlns="http://www.w3.org/1999/xhtml" style="display: table-cell; white-space: nowrap; line-height: 1.5; max-width: 166px; text-align: center;"><span class="nodeLabel markdown-node-label" style=""><p>+checkIn(userId)</p></span></div></foreignObject></g><g class="label" style="" transform="translate(0,36)"><foreignObject width="315.71875" height="24"><div xmlns="http://www.w3.org/1999/xhtml" style="display: table-cell; white-space: nowrap; line-height: 1.5; max-width: 344px; text-align: center;"><span class="nodeLabel markdown-node-label" style=""><p>+spendForPublish(userId, amount, pickupId)</p></span></div></foreignObject></g><g class="label" style="" transform="translate(0,60)"><foreignObject width="318.203125" height="24"><div xmlns="http://www.w3.org/1999/xhtml" style="display: table-cell; white-space: nowrap; line-height: 1.5; max-width: 344px; text-align: center;"><span class="nodeLabel markdown-node-label" style=""><p>+refundForCancel(userId, amount, pickupId)</p></span></div></foreignObject></g><g class="label" style="" transform="translate(0,84)"><foreignObject width="438.09375" height="24"><div xmlns="http://www.w3.org/1999/xhtml" style="display: table-cell; white-space: nowrap; line-height: 1.5; max-width: 448px; text-align: center;"><span class="nodeLabel markdown-node-label" style=""><p>+transferOnComplete(payerId, receiverId, amount, pickupId)</p></span></div></foreignObject></g><g class="label" style="" transform="translate(0,108)"><foreignObject width="384.609375" height="24"><div xmlns="http://www.w3.org/1999/xhtml" style="display: table-cell; white-space: nowrap; line-height: 1.5; max-width: 399px; text-align: center;"><span class="nodeLabel markdown-node-label" style=""><p>#applyChange(userId, type, amount, relatedPickupId)</p></span></div></foreignObject></g></g><g class="divider" style=""><path d="M-254.4375 -75 C-123.54808158469245 -74.99974278669926, 7.3413368306150915 -74.99948557339852, 254.4375 -74.999 M-254.4375 -75 C-151.8019630879422 -74.99979830894245, -49.166426175884396 -74.99959661788489, 254.4375 -74.999" stroke="#9370DB" stroke-width="1.3" fill="none" stroke-dasharray="0 0" style=""/></g><g class="divider" style=""><path d="M-254.4375 -51 C-105.93611663564869 -50.99970817708993, 42.565266728702625 -50.99941635417985, 254.4375 -50.999 M-254.4375 -51 C-112.98708884667826 -50.99972203309034, 28.463322306643477 -50.99944406618068, 254.4375 -50.999" stroke="#9370DB" stroke-width="1.3" fill="none" stroke-dasharray="0 0" style=""/></g></g><g class="node default" id="my-svg-classId-User-1" data-look="classic" transform="translate(186.01171875, 370)"><g class="basic label-container outer-path"><path d="M-28.8828125 -42 L28.8828125 -42 L28.8828125 42 L-28.8828125 42" stroke="none" stroke-width="0" fill="#ECECFF" style=""/><path d="M-28.8828125 -42 C-15.193303008378349 -42, -1.5037935167566978 -42, 28.8828125 -42 M-28.8828125 -42 C-11.106200802696858 -42, 6.670410894606285 -42, 28.8828125 -42 M28.8828125 -42 C28.8828125 -13.997612545776917, 28.8828125 14.004774908446166, 28.8828125 42 M28.8828125 -42 C28.8828125 -23.109936128804744, 28.8828125 -4.219872257609488, 28.8828125 42 M28.8828125 42 C9.679180611875875 42, -9.52445127624825 42, -28.8828125 42 M28.8828125 42 C16.046333659801398 42, 3.2098548196027927 42, -28.8828125 42 M-28.8828125 42 C-28.8828125 24.137103796399355, -28.8828125 6.27420759279871, -28.8828125 -42 M-28.8828125 42 C-28.8828125 8.98473632506149, -28.8828125 -24.03052734987702, -28.8828125 -42" stroke="#9370DB" stroke-width="1.3" fill="none" stroke-dasharray="0 0" style=""/></g><g class="annotation-group text" transform="translate(0, -18)"/><g class="label-group text" transform="translate(-16.8828125, -18)"><g class="label" style="font-weight: bolder" transform="translate(0,-12)"><foreignObject width="33.765625" height="24"><div xmlns="http://www.w3.org/1999/xhtml" style="display: table-cell; white-space: nowrap; line-height: 1.5; max-width: 82px; text-align: center;"><span class="nodeLabel markdown-node-label" style=""><p>User</p></span></div></foreignObject></g></g><g class="members-group text" transform="translate(-16.8828125, 30)"/><g class="methods-group text" transform="translate(-16.8828125, 60)"/><g class="divider" style=""><path d="M-28.8828125 6 C-12.371386208970005 6.00028583480731, 4.14004008205999 6.0005716696146205, 28.8828125 6.001 M-28.8828125 6 C-17.05057035162382 6.000204831890045, -5.218328203247641 6.00040966378009, 28.8828125 6.001" stroke="#9370DB" stroke-width="1.3" fill="none" stroke-dasharray="0 0" style=""/></g><g class="divider" style=""><path d="M-28.8828125 24 C-13.519315239696898 24.000265962625008, 1.8441820206062047 24.00053192525002, 28.8828125 24.001 M-28.8828125 24 C-8.227315783565459 24.00035757419255, 12.428180932869083 24.000715148385098, 28.8828125 24.001" stroke="#9370DB" stroke-width="1.3" fill="none" stroke-dasharray="0 0" style=""/></g></g><g class="node default" id="my-svg-classId-PointTransaction-2" data-look="classic" transform="translate(338.86328125, 370)"><g class="basic label-container outer-path"><path d="M-73.96875 -42 L73.96875 -42 L73.96875 42 L-73.96875 42" stroke="none" stroke-width="0" fill="#ECECFF" style=""/><path d="M-73.96875 -42 C-18.41908373466952 -42, 37.13058253066096 -42, 73.96875 -42 M-73.96875 -42 C-22.804239211265568 -42, 28.360271577468865 -42, 73.96875 -42 M73.96875 -42 C73.96875 -19.79737895231723, 73.96875 2.405242095365537, 73.96875 42 M73.96875 -42 C73.96875 -12.596840664978952, 73.96875 16.806318670042096, 73.96875 42 M73.96875 42 C38.924689224529075 42, 3.8806284490581504 42, -73.96875 42 M73.96875 42 C20.102045880699315 42, -33.76465823860137 42, -73.96875 42 M-73.96875 42 C-73.96875 14.149702165189488, -73.96875 -13.700595669621023, -73.96875 -42 M-73.96875 42 C-73.96875 22.04101567902679, -73.96875 2.0820313580535768, -73.96875 -42" stroke="#9370DB" stroke-width="1.3" fill="none" stroke-dasharray="0 0" style=""/></g><g class="annotation-group text" transform="translate(0, -18)"/><g class="label-group text" transform="translate(-61.96875, -18)"><g class="label" style="font-weight: bolder" transform="translate(0,-12)"><foreignObject width="123.9375" height="24"><div xmlns="http://www.w3.org/1999/xhtml" style="display: table-cell; white-space: nowrap; line-height: 1.5; max-width: 161px; text-align: center;"><span class="nodeLabel markdown-node-label" style=""><p>PointTransaction</p></span></div></foreignObject></g></g><g class="members-group text" transform="translate(-61.96875, 30)"/><g class="methods-group text" transform="translate(-61.96875, 60)"/><g class="divider" style=""><path d="M-73.96875 6 C-27.879744770383596 6.000311543761586, 18.20926045923281 6.000623087523172, 73.96875 6.001 M-73.96875 6 C-31.36158236988625 6.000288007892726, 11.2455852602275 6.000576015785452, 73.96875 6.001" stroke="#9370DB" stroke-width="1.3" fill="none" stroke-dasharray="0 0" style=""/></g><g class="divider" style=""><path d="M-73.96875 24 C-23.838920058664 24.00033885816606, 26.290909882671997 24.00067771633212, 73.96875 24.001 M-73.96875 24 C-39.73882128331 24.000231381013716, -5.5088925666200055 24.000462762027432, 73.96875 24.001" stroke="#9370DB" stroke-width="1.3" fill="none" stroke-dasharray="0 0" style=""/></g></g></g></g></g><defs><filter id="my-svg-drop-shadow" height="130%" width="130%"><feDropShadow dx="4" dy="4" stdDeviation="0" flood-opacity="0.06" flood-color="#000000"/></filter></defs><defs><filter id="my-svg-drop-shadow-small" height="150%" width="150%"><feDropShadow dx="2" dy="2" stdDeviation="0" flood-opacity="0.06" flood-color="#000000"/></filter></defs></svg>